<svg xmlns="http://www.w3.org/2000/svg" width="1666" height="1568" viewBox="0 0 1666 1568">
<rect width="1666" height="1568" fill="#FFFFFF"/>
<rect x="332.0" y="545.0" width="170.0" height="68.0" rx="0.0" fill="#FFFFFF" stroke="#2E3A46" stroke-width="2.5"/><line x1="417.0" y1="545.0" x2="417.0" y2="613.0" stroke="#2E3A46" stroke-width="2.5" stroke-linecap="square"/><path d="M 343.5,561.9 v 34.3 a 31.0,8.9 0 0 0 62.0,0 v -34.3 z" fill="#3BAEE4" stroke="#1F7FA6" stroke-width="1.5" stroke-linejoin="round" stroke-linecap="round"/><ellipse cx="374.5" cy="561.9" rx="31.0" ry="8.9" fill="#6FC7EE" stroke="#1F7FA6" stroke-width="1.5"/><path d="M 343.5,574.2 a 31.0,8.9 0 0 0 62.0,0" fill="none" stroke="#1F7FA6" stroke-width="1.2" stroke-linejoin="round" stroke-linecap="round"/><path d="M 343.5,584.5 a 31.0,8.9 0 0 0 62.0,0" fill="none" stroke="#1F7FA6" stroke-width="1.2" stroke-linejoin="round" stroke-linecap="round"/><text x="459.5" y="586.0" font-family="Helvetica, Arial, sans-serif" font-size="20.0" fill="#1F2933" text-anchor="middle" font-weight="normal">Mod</text><line x1="374.5" y1="615.0" x2="374.5" y2="644.0" stroke="#2E3A46" stroke-width="2.5" stroke-linecap="square"/><polygon points="374.5,654.0 365.2,639.0 383.8,639.0" fill="#2E3A46"/><path d="M 356.5,658.0 L 381.7,658.0 L 392.5,668.8 L 392.5,698.0 L 356.5,698.0 Z" fill="none" stroke="#2E3A46" stroke-width="4.0" stroke-linejoin="round" stroke-linecap="round"/><line x1="459.5" y1="615.0" x2="459.5" y2="644.0" stroke="#2E3A46" stroke-width="2.5" stroke-linecap="square"/><polygon points="459.5,654.0 450.2,639.0 468.8,639.0" fill="#2E3A46"/><path d="M 466.7,658.0 L 441.5,658.0 L 441.5,698.0 L 465.3,698.0" fill="none" stroke="#2E3A46" stroke-width="4.0" stroke-linejoin="round" stroke-linecap="round"/><path d="M 466.7,658.0 L 477.5,668.8 L 477.5,685.8" fill="none" stroke="#2E3A46" stroke-width="4.0" stroke-linejoin="round" stroke-linecap="round"/><line x1="470.2" y1="684.5" x2="470.2" y2="704.1" stroke="#2E3A46" stroke-width="4.0" stroke-linecap="square"/><line x1="460.4" y1="694.3" x2="479.9" y2="694.3" stroke="#2E3A46" stroke-width="4.0" stroke-linecap="square"/><rect x="110.0" y="545.0" width="170.0" height="68.0" rx="0.0" fill="#FFFFFF" stroke="#2E3A46" stroke-width="2.5"/><line x1="195.0" y1="545.0" x2="195.0" y2="613.0" stroke="#2E3A46" stroke-width="2.5" stroke-linecap="square"/><path d="M 121.5,561.9 v 34.3 a 31.0,8.9 0 0 0 62.0,0 v -34.3 z" fill="#3BAEE4" stroke="#1F7FA6" stroke-width="1.5" stroke-linejoin="round" stroke-linecap="round"/><ellipse cx="152.5" cy="561.9" rx="31.0" ry="8.9" fill="#6FC7EE" stroke="#1F7FA6" stroke-width="1.5"/><path d="M 121.5,574.2 a 31.0,8.9 0 0 0 62.0,0" fill="none" stroke="#1F7FA6" stroke-width="1.2" stroke-linejoin="round" stroke-linecap="round"/><path d="M 121.5,584.5 a 31.0,8.9 0 0 0 62.0,0" fill="none" stroke="#1F7FA6" stroke-width="1.2" stroke-linejoin="round" stroke-linecap="round"/><text x="237.5" y="586.0" font-family="Helvetica, Arial, sans-serif" font-size="20.0" fill="#1F2933" text-anchor="middle" font-weight="normal">Mod</text><line x1="152.5" y1="615.0" x2="152.5" y2="644.0" stroke="#2E3A46" stroke-width="2.5" stroke-linecap="square"/><polygon points="152.5,654.0 143.2,639.0 161.8,639.0" fill="#2E3A46"/><path d="M 134.5,658.0 L 159.7,658.0 L 170.5,668.8 L 170.5,698.0 L 134.5,698.0 Z" fill="none" stroke="#2E3A46" stroke-width="4.0" stroke-linejoin="round" stroke-linecap="round"/><line x1="237.5" y1="615.0" x2="237.5" y2="644.0" stroke="#2E3A46" stroke-width="2.5" stroke-linecap="square"/><polygon points="237.5,654.0 228.2,639.0 246.8,639.0" fill="#2E3A46"/><path d="M 244.7,658.0 L 219.5,658.0 L 219.5,698.0 L 243.3,698.0" fill="none" stroke="#2E3A46" stroke-width="4.0" stroke-linejoin="round" stroke-linecap="round"/><path d="M 244.7,658.0 L 255.5,668.8 L 255.5,685.8" fill="none" stroke="#2E3A46" stroke-width="4.0" stroke-linejoin="round" stroke-linecap="round"/><line x1="248.2" y1="684.5" x2="248.2" y2="704.1" stroke="#2E3A46" stroke-width="4.0" stroke-linecap="square"/><line x1="238.4" y1="694.3" x2="257.9" y2="694.3" stroke="#2E3A46" stroke-width="4.0" stroke-linecap="square"/><line x1="374.5" y1="545.0" x2="374.5" y2="497.0" stroke="#2E3A46" stroke-width="2.5" stroke-linecap="square"/><line x1="374.5" y1="497.0" x2="152.5" y2="497.0" stroke="#2E3A46" stroke-width="2.5" stroke-linecap="square"/><line x1="152.5" y1="497.0" x2="152.5" y2="533.0" stroke="#2E3A46" stroke-width="2.5" stroke-linecap="square"/><polygon points="152.5,543.0 143.2,528.0 161.8,528.0" fill="#2E3A46"/><rect x="332.0" y="770.0" width="170.0" height="68.0" rx="0.0" fill="#FFFFFF" stroke="#2E3A46" stroke-width="2.5"/><line x1="417.0" y1="770.0" x2="417.0" y2="838.0" stroke="#2E3A46" stroke-width="2.5" stroke-linecap="square"/><path d="M 343.5,786.9 v 34.3 a 31.0,8.9 0 0 0 62.0,0 v -34.3 z" fill="#3BAEE4" stroke="#1F7FA6" stroke-width="1.5" stroke-linejoin="round" stroke-linecap="round"/><ellipse cx="374.5" cy="786.9" rx="31.0" ry="8.9" fill="#6FC7EE" stroke="#1F7FA6" stroke-width="1.5"/><path d="M 343.5,799.2 a 31.0,8.9 0 0 0 62.0,0" fill="none" stroke="#1F7FA6" stroke-width="1.2" stroke-linejoin="round" stroke-linecap="round"/><path d="M 343.5,809.5 a 31.0,8.9 0 0 0 62.0,0" fill="none" stroke="#1F7FA6" stroke-width="1.2" stroke-linejoin="round" stroke-linecap="round"/><text x="459.5" y="811.0" font-family="Helvetica, Arial, sans-serif" font-size="20.0" fill="#1F2933" text-anchor="middle" font-weight="normal">Mod</text><line x1="374.5" y1="840.0" x2="374.5" y2="869.0" stroke="#2E3A46" stroke-width="2.5" stroke-linecap="square"/><polygon points="374.5,879.0 365.2,864.0 383.8,864.0" fill="#2E3A46"/><path d="M 356.5,883.0 L 381.7,883.0 L 392.5,893.8 L 392.5,923.0 L 356.5,923.0 Z" fill="none" stroke="#2E3A46" stroke-width="4.0" stroke-linejoin="round" stroke-linecap="round"/><line x1="459.5" y1="840.0" x2="459.5" y2="869.0" stroke="#2E3A46" stroke-width="2.5" stroke-linecap="square"/><polygon points="459.5,879.0 450.2,864.0 468.8,864.0" fill="#2E3A46"/><path d="M 466.7,883.0 L 441.5,883.0 L 441.5,923.0 L 465.3,923.0" fill="none" stroke="#2E3A46" stroke-width="4.0" stroke-linejoin="round" stroke-linecap="round"/><path d="M 466.7,883.0 L 477.5,893.8 L 477.5,910.8" fill="none" stroke="#2E3A46" stroke-width="4.0" stroke-linejoin="round" stroke-linecap="round"/><line x1="470.2" y1="909.5" x2="470.2" y2="929.1" stroke="#2E3A46" stroke-width="4.0" stroke-linecap="square"/><line x1="460.4" y1="919.3" x2="479.9" y2="919.3" stroke="#2E3A46" stroke-width="4.0" stroke-linecap="square"/><rect x="110.0" y="770.0" width="170.0" height="68.0" rx="0.0" fill="#FFFFFF" stroke="#2E3A46" stroke-width="2.5"/><line x1="195.0" y1="770.0" x2="195.0" y2="838.0" stroke="#2E3A46" stroke-width="2.5" stroke-linecap="square"/><path d="M 121.5,786.9 v 34.3 a 31.0,8.9 0 0 0 62.0,0 v -34.3 z" fill="#3BAEE4" stroke="#1F7FA6" stroke-width="1.5" stroke-linejoin="round" stroke-linecap="round"/><ellipse cx="152.5" cy="786.9" rx="31.0" ry="8.9" fill="#6FC7EE" stroke="#1F7FA6" stroke-width="1.5"/><path d="M 121.5,799.2 a 31.0,8.9 0 0 0 62.0,0" fill="none" stroke="#1F7FA6" stroke-width="1.2" stroke-linejoin="round" stroke-linecap="round"/><path d="M 121.5,809.5 a 31.0,8.9 0 0 0 62.0,0" fill="none" stroke="#1F7FA6" stroke-width="1.2" stroke-linejoin="round" stroke-linecap="round"/><text x="237.5" y="811.0" font-family="Helvetica, Arial, sans-serif" font-size="20.0" fill="#1F2933" text-anchor="middle" font-weight="normal">Mod</text><line x1="152.5" y1="840.0" x2="152.5" y2="869.0" stroke="#2E3A46" stroke-width="2.5" stroke-linecap="square"/><polygon points="152.5,879.0 143.2,864.0 161.8,864.0" fill="#2E3A46"/><path d="M 134.5,883.0 L 159.7,883.0 L 170.5,893.8 L 170.5,923.0 L 134.5,923.0 Z" fill="none" stroke="#2E3A46" stroke-width="4.0" stroke-linejoin="round" stroke-linecap="round"/><line x1="237.5" y1="840.0" x2="237.5" y2="869.0" stroke="#2E3A46" stroke-width="2.5" stroke-linecap="square"/><polygon points="237.5,879.0 228.2,864.0 246.8,864.0" fill="#2E3A46"/><path d="M 244.7,883.0 L 219.5,883.0 L 219.5,923.0 L 243.3,923.0" fill="none" stroke="#2E3A46" stroke-width="4.0" stroke-linejoin="round" stroke-linecap="round"/><path d="M 244.7,883.0 L 255.5,893.8 L 255.5,910.8" fill="none" stroke="#2E3A46" stroke-width="4.0" stroke-linejoin="round" stroke-linecap="round"/><line x1="248.2" y1="909.5" x2="248.2" y2="929.1" stroke="#2E3A46" stroke-width="4.0" stroke-linecap="square"/><line x1="238.4" y1="919.3" x2="257.9" y2="919.3" stroke="#2E3A46" stroke-width="4.0" stroke-linecap="square"/><line x1="374.5" y1="770.0" x2="374.5" y2="722.0" stroke="#2E3A46" stroke-width="2.5" stroke-linecap="square"/><line x1="374.5" y1="722.0" x2="152.5" y2="722.0" stroke="#2E3A46" stroke-width="2.5" stroke-linecap="square"/><line x1="152.5" y1="722.0" x2="152.5" y2="758.0" stroke="#2E3A46" stroke-width="2.5" stroke-linecap="square"/><polygon points="152.5,768.0 143.2,753.0 161.8,753.0" fill="#2E3A46"/><rect x="332.0" y="995.0" width="170.0" height="68.0" rx="0.0" fill="#FFFFFF" stroke="#2E3A46" stroke-width="2.5"/><line x1="417.0" y1="995.0" x2="417.0" y2="1063.0" stroke="#2E3A46" stroke-width="2.5" stroke-linecap="square"/><path d="M 343.5,1011.9 v 34.3 a 31.0,8.9 0 0 0 62.0,0 v -34.3 z" fill="#3BAEE4" stroke="#1F7FA6" stroke-width="1.5" stroke-linejoin="round" stroke-linecap="round"/><ellipse cx="374.5" cy="1011.9" rx="31.0" ry="8.9" fill="#6FC7EE" stroke="#1F7FA6" stroke-width="1.5"/><path d="M 343.5,1024.2 a 31.0,8.9 0 0 0 62.0,0" fill="none" stroke="#1F7FA6" stroke-width="1.2" stroke-linejoin="round" stroke-linecap="round"/><path d="M 343.5,1034.5 a 31.0,8.9 0 0 0 62.0,0" fill="none" stroke="#1F7FA6" stroke-width="1.2" stroke-linejoin="round" stroke-linecap="round"/><text x="459.5" y="1036.0" font-family="Helvetica, Arial, sans-serif" font-size="20.0" fill="#1F2933" text-anchor="middle" font-weight="normal">Mod</text><line x1="374.5" y1="1065.0" x2="374.5" y2="1094.0" stroke="#2E3A46" stroke-width="2.5" stroke-linecap="square"/><polygon points="374.5,1104.0 365.2,1089.0 383.8,1089.0" fill="#2E3A46"/><path d="M 356.5,1108.0 L 381.7,1108.0 L 392.5,1118.8 L 392.5,1148.0 L 356.5,1148.0 Z" fill="none" stroke="#2E3A46" stroke-width="4.0" stroke-linejoin="round" stroke-linecap="round"/><line x1="459.5" y1="1065.0" x2="459.5" y2="1094.0" stroke="#2E3A46" stroke-width="2.5" stroke-linecap="square"/><polygon points="459.5,1104.0 450.2,1089.0 468.8,1089.0" fill="#2E3A46"/><path d="M 466.7,1108.0 L 441.5,1108.0 L 441.5,1148.0 L 465.3,1148.0" fill="none" stroke="#2E3A46" stroke-width="4.0" stroke-linejoin="round" stroke-linecap="round"/><path d="M 466.7,1108.0 L 477.5,1118.8 L 477.5,1135.8" fill="none" stroke="#2E3A46" stroke-width="4.0" stroke-linejoin="round" stroke-linecap="round"/><line x1="470.2" y1="1134.5" x2="470.2" y2="1154.1" stroke="#2E3A46" stroke-width="4.0" stroke-linecap="square"/><line x1="460.4" y1="1144.3" x2="479.9" y2="1144.3" stroke="#2E3A46" stroke-width="4.0" stroke-linecap="square"/><rect x="110.0" y="995.0" width="170.0" height="68.0" rx="0.0" fill="#FFFFFF" stroke="#2E3A46" stroke-width="2.5"/><line x1="195.0" y1="995.0" x2="195.0" y2="1063.0" stroke="#2E3A46" stroke-width="2.5" stroke-linecap="square"/><path d="M 121.5,1011.9 v 34.3 a 31.0,8.9 0 0 0 62.0,0 v -34.3 z" fill="#3BAEE4" stroke="#1F7FA6" stroke-width="1.5" stroke-linejoin="round" stroke-linecap="round"/><ellipse cx="152.5" cy="1011.9" rx="31.0" ry="8.9" fill="#6FC7EE" stroke="#1F7FA6" stroke-width="1.5"/><path d="M 121.5,1024.2 a 31.0,8.9 0 0 0 62.0,0" fill="none" stroke="#1F7FA6" stroke-width="1.2" stroke-linejoin="round" stroke-linecap="round"/><path d="M 121.5,1034.5 a 31.0,8.9 0 0 0 62.0,0" fill="none" stroke="#1F7FA6" stroke-width="1.2" stroke-linejoin="round" stroke-linecap="round"/><text x="237.5" y="1036.0" font-family="Helvetica, Arial, sans-serif" font-size="20.0" fill="#1F2933" text-anchor="middle" font-weight="normal">Mod</text><line x1="152.5" y1="1065.0" x2="152.5" y2="1094.0" stroke="#2E3A46" stroke-width="2.5" stroke-linecap="square"/><polygon points="152.5,1104.0 143.2,1089.0 161.8,1089.0" fill="#2E3A46"/><path d="M 134.5,1108.0 L 159.7,1108.0 L 170.5,1118.8 L 170.5,1148.0 L 134.5,1148.0 Z" fill="none" stroke="#2E3A46" stroke-width="4.0" stroke-linejoin="round" stroke-linecap="round"/><line x1="237.5" y1="1065.0" x2="237.5" y2="1094.0" stroke="#2E3A46" stroke-width="2.5" stroke-linecap="square"/><polygon points="237.5,1104.0 228.2,1089.0 246.8,1089.0" fill="#2E3A46"/><path d="M 244.7,1108.0 L 219.5,1108.0 L 219.5,1148.0 L 243.3,1148.0" fill="none" stroke="#2E3A46" stroke-width="4.0" stroke-linejoin="round" stroke-linecap="round"/><path d="M 244.7,1108.0 L 255.5,1118.8 L 255.5,1135.8" fill="none" stroke="#2E3A46" stroke-width="4.0" stroke-linejoin="round" stroke-linecap="round"/><line x1="248.2" y1="1134.5" x2="248.2" y2="1154.1" stroke="#2E3A46" stroke-width="4.0" stroke-linecap="square"/><line x1="238.4" y1="1144.3" x2="257.9" y2="1144.3" stroke="#2E3A46" stroke-width="4.0" stroke-linecap="square"/><line x1="374.5" y1="995.0" x2="374.5" y2="947.0" stroke="#2E3A46" stroke-width="2.5" stroke-linecap="square"/><line x1="374.5" y1="947.0" x2="152.5" y2="947.0" stroke="#2E3A46" stroke-width="2.5" stroke-linecap="square"/><line x1="152.5" y1="947.0" x2="152.5" y2="983.0" stroke="#2E3A46" stroke-width="2.5" stroke-linecap="square"/><polygon points="152.5,993.0 143.2,978.0 161.8,978.0" fill="#2E3A46"/><rect x="1188.0" y="120.0" width="170.0" height="68.0" rx="0.0" fill="#FFFFFF" stroke="#2E3A46" stroke-width="2.5"/><line x1="1273.0" y1="120.0" x2="1273.0" y2="188.0" stroke="#2E3A46" stroke-width="2.5" stroke-linecap="square"/><path d="M 1284.5,136.9 v 34.3 a 31.0,8.9 0 0 0 62.0,0 v -34.3 z" fill="#3BAEE4" stroke="#1F7FA6" stroke-width="1.5" stroke-linejoin="round" stroke-linecap="round"/><ellipse cx="1315.5" cy="136.9" rx="31.0" ry="8.9" fill="#6FC7EE" stroke="#1F7FA6" stroke-width="1.5"/><path d="M 1284.5,149.2 a 31.0,8.9 0 0 0 62.0,0" fill="none" stroke="#1F7FA6" stroke-width="1.2" stroke-linejoin="round" stroke-linecap="round"/><path d="M 1284.5,159.5 a 31.0,8.9 0 0 0 62.0,0" fill="none" stroke="#1F7FA6" stroke-width="1.2" stroke-linejoin="round" stroke-linecap="round"/><text x="1230.5" y="161.0" font-family="Helvetica, Arial, sans-serif" font-size="20.0" fill="#1F2933" text-anchor="middle" font-weight="normal">Mod</text><line x1="1315.5" y1="190.0" x2="1315.5" y2="219.0" stroke="#2E3A46" stroke-width="2.5" stroke-linecap="square"/><polygon points="1315.5,229.0 1306.2,214.0 1324.8,214.0" fill="#2E3A46"/><path d="M 1297.5,233.0 L 1322.7,233.0 L 1333.5,243.8 L 1333.5,273.0 L 1297.5,273.0 Z" fill="none" stroke="#2E3A46" stroke-width="4.0" stroke-linejoin="round" stroke-linecap="round"/><line x1="1230.5" y1="190.0" x2="1230.5" y2="219.0" stroke="#2E3A46" stroke-width="2.5" stroke-linecap="square"/><polygon points="1230.5,229.0 1221.2,214.0 1239.8,214.0" fill="#2E3A46"/><path d="M 1237.7,233.0 L 1212.5,233.0 L 1212.5,273.0 L 1236.3,273.0" fill="none" stroke="#2E3A46" stroke-width="4.0" stroke-linejoin="round" stroke-linecap="round"/><path d="M 1237.7,233.0 L 1248.5,243.8 L 1248.5,260.8" fill="none" stroke="#2E3A46" stroke-width="4.0" stroke-linejoin="round" stroke-linecap="round"/><line x1="1241.2" y1="259.5" x2="1241.2" y2="279.1" stroke="#2E3A46" stroke-width="4.0" stroke-linecap="square"/><line x1="1231.4" y1="269.3" x2="1250.9" y2="269.3" stroke="#2E3A46" stroke-width="4.0" stroke-linecap="square"/><rect x="1390.0" y="120.0" width="170.0" height="68.0" rx="0.0" fill="#FFFFFF" stroke="#2E3A46" stroke-width="2.5"/><line x1="1475.0" y1="120.0" x2="1475.0" y2="188.0" stroke="#2E3A46" stroke-width="2.5" stroke-linecap="square"/><path d="M 1486.5,136.9 v 34.3 a 31.0,8.9 0 0 0 62.0,0 v -34.3 z" fill="#3BAEE4" stroke="#1F7FA6" stroke-width="1.5" stroke-linejoin="round" stroke-linecap="round"/><ellipse cx="1517.5" cy="136.9" rx="31.0" ry="8.9" fill="#6FC7EE" stroke="#1F7FA6" stroke-width="1.5"/><path d="M 1486.5,149.2 a 31.0,8.9 0 0 0 62.0,0" fill="none" stroke="#1F7FA6" stroke-width="1.2" stroke-linejoin="round" stroke-linecap="round"/><path d="M 1486.5,159.5 a 31.0,8.9 0 0 0 62.0,0" fill="none" stroke="#1F7FA6" stroke-width="1.2" stroke-linejoin="round" stroke-linecap="round"/><text x="1432.5" y="161.0" font-family="Helvetica, Arial, sans-serif" font-size="20.0" fill="#1F2933" text-anchor="middle" font-weight="normal">Mod</text><line x1="1517.5" y1="190.0" x2="1517.5" y2="219.0" stroke="#2E3A46" stroke-width="2.5" stroke-linecap="square"/><polygon points="1517.5,229.0 1508.2,214.0 1526.8,214.0" fill="#2E3A46"/><path d="M 1499.5,233.0 L 1524.7,233.0 L 1535.5,243.8 L 1535.5,273.0 L 1499.5,273.0 Z" fill="none" stroke="#2E3A46" stroke-width="4.0" stroke-linejoin="round" stroke-linecap="round"/><line x1="1432.5" y1="190.0" x2="1432.5" y2="219.0" stroke="#2E3A46" stroke-width="2.5" stroke-linecap="square"/><polygon points="1432.5,229.0 1423.2,214.0 1441.8,214.0" fill="#2E3A46"/><path d="M 1439.7,233.0 L 1414.5,233.0 L 1414.5,273.0 L 1438.3,273.0" fill="none" stroke="#2E3A46" stroke-width="4.0" stroke-linejoin="round" stroke-linecap="round"/><path d="M 1439.7,233.0 L 1450.5,243.8 L 1450.5,260.8" fill="none" stroke="#2E3A46" stroke-width="4.0" stroke-linejoin="round" stroke-linecap="round"/><line x1="1443.2" y1="259.5" x2="1443.2" y2="279.1" stroke="#2E3A46" stroke-width="4.0" stroke-linecap="square"/><line x1="1433.4" y1="269.3" x2="1452.9" y2="269.3" stroke="#2E3A46" stroke-width="4.0" stroke-linecap="square"/><line x1="1315.5" y1="120.0" x2="1315.5" y2="72.0" stroke="#2E3A46" stroke-width="2.5" stroke-linecap="square"/><line x1="1315.5" y1="72.0" x2="1517.5" y2="72.0" stroke="#2E3A46" stroke-width="2.5" stroke-linecap="square"/><line x1="1517.5" y1="72.0" x2="1517.5" y2="108.0" stroke="#2E3A46" stroke-width="2.5" stroke-linecap="square"/><polygon points="1517.5,118.0 1508.2,103.0 1526.8,103.0" fill="#2E3A46"/><rect x="1188.0" y="345.0" width="170.0" height="68.0" rx="0.0" fill="#FFFFFF" stroke="#2E3A46" stroke-width="2.5"/><line x1="1273.0" y1="345.0" x2="1273.0" y2="413.0" stroke="#2E3A46" stroke-width="2.5" stroke-linecap="square"/><path d="M 1284.5,361.9 v 34.3 a 31.0,8.9 0 0 0 62.0,0 v -34.3 z" fill="#3BAEE4" stroke="#1F7FA6" stroke-width="1.5" stroke-linejoin="round" stroke-linecap="round"/><ellipse cx="1315.5" cy="361.9" rx="31.0" ry="8.9" fill="#6FC7EE" stroke="#1F7FA6" stroke-width="1.5"/><path d="M 1284.5,374.2 a 31.0,8.9 0 0 0 62.0,0" fill="none" stroke="#1F7FA6" stroke-width="1.2" stroke-linejoin="round" stroke-linecap="round"/><path d="M 1284.5,384.5 a 31.0,8.9 0 0 0 62.0,0" fill="none" stroke="#1F7FA6" stroke-width="1.2" stroke-linejoin="round" stroke-linecap="round"/><text x="1230.5" y="386.0" font-family="Helvetica, Arial, sans-serif" font-size="20.0" fill="#1F2933" text-anchor="middle" font-weight="normal">Mod</text><line x1="1315.5" y1="415.0" x2="1315.5" y2="444.0" stroke="#2E3A46" stroke-width="2.5" stroke-linecap="square"/><polygon points="1315.5,454.0 1306.2,439.0 1324.8,439.0" fill="#2E3A46"/><path d="M 1297.5,458.0 L 1322.7,458.0 L 1333.5,468.8 L 1333.5,498.0 L 1297.5,498.0 Z" fill="none" stroke="#2E3A46" stroke-width="4.0" stroke-linejoin="round" stroke-linecap="round"/><line x1="1230.5" y1="415.0" x2="1230.5" y2="444.0" stroke="#2E3A46" stroke-width="2.5" stroke-linecap="square"/><polygon points="1230.5,454.0 1221.2,439.0 1239.8,439.0" fill="#2E3A46"/><path d="M 1237.7,458.0 L 1212.5,458.0 L 1212.5,498.0 L 1236.3,498.0" fill="none" stroke="#2E3A46" stroke-width="4.0" stroke-linejoin="round" stroke-linecap="round"/><path d="M 1237.7,458.0 L 1248.5,468.8 L 1248.5,485.8" fill="none" stroke="#2E3A46" stroke-width="4.0" stroke-linejoin="round" stroke-linecap="round"/><line x1="1241.2" y1="484.5" x2="1241.2" y2="504.1" stroke="#2E3A46" stroke-width="4.0" stroke-linecap="square"/><line x1="1231.4" y1="494.3" x2="1250.9" y2="494.3" stroke="#2E3A46" stroke-width="4.0" stroke-linecap="square"/><rect x="1390.0" y="345.0" width="170.0" height="68.0" rx="0.0" fill="#FFFFFF" stroke="#2E3A46" stroke-width="2.5"/><line x1="1475.0" y1="345.0" x2="1475.0" y2="413.0" stroke="#2E3A46" stroke-width="2.5" stroke-linecap="square"/><path d="M 1486.5,361.9 v 34.3 a 31.0,8.9 0 0 0 62.0,0 v -34.3 z" fill="#3BAEE4" stroke="#1F7FA6" stroke-width="1.5" stroke-linejoin="round" stroke-linecap="round"/><ellipse cx="1517.5" cy="361.9" rx="31.0" ry="8.9" fill="#6FC7EE" stroke="#1F7FA6" stroke-width="1.5"/><path d="M 1486.5,374.2 a 31.0,8.9 0 0 0 62.0,0" fill="none" stroke="#1F7FA6" stroke-width="1.2" stroke-linejoin="round" stroke-linecap="round"/><path d="M 1486.5,384.5 a 31.0,8.9 0 0 0 62.0,0" fill="none" stroke="#1F7FA6" stroke-width="1.2" stroke-linejoin="round" stroke-linecap="round"/><text x="1432.5" y="386.0" font-family="Helvetica, Arial, sans-serif" font-size="20.0" fill="#1F2933" text-anchor="middle" font-weight="normal">Mod</text><line x1="1517.5" y1="415.0" x2="1517.5" y2="444.0" stroke="#2E3A46" stroke-width="2.5" stroke-linecap="square"/><polygon points="1517.5,454.0 1508.2,439.0 1526.8,439.0" fill="#2E3A46"/><path d="M 1499.5,458.0 L 1524.7,458.0 L 1535.5,468.8 L 1535.5,498.0 L 1499.5,498.0 Z" fill="none" stroke="#2E3A46" stroke-width="4.0" stroke-linejoin="round" stroke-linecap="round"/><line x1="1432.5" y1="415.0" x2="1432.5" y2="444.0" stroke="#2E3A46" stroke-width="2.5" stroke-linecap="square"/><polygon points="1432.5,454.0 1423.2,439.0 1441.8,439.0" fill="#2E3A46"/><path d="M 1439.7,458.0 L 1414.5,458.0 L 1414.5,498.0 L 1438.3,498.0" fill="none" stroke="#2E3A46" stroke-width="4.0" stroke-linejoin="round" stroke-linecap="round"/><path d="M 1439.7,458.0 L 1450.5,468.8 L 1450.5,485.8" fill="none" stroke="#2E3A46" stroke-width="4.0" stroke-linejoin="round" stroke-linecap="round"/><line x1="1443.2" y1="484.5" x2="1443.2" y2="504.1" stroke="#2E3A46" stroke-width="4.0" stroke-linecap="square"/><line x1="1433.4" y1="494.3" x2="1452.9" y2="494.3" stroke="#2E3A46" stroke-width="4.0" stroke-linecap="square"/><line x1="1315.5" y1="345.0" x2="1315.5" y2="297.0" stroke="#2E3A46" stroke-width="2.5" stroke-linecap="square"/><line x1="1315.5" y1="297.0" x2="1517.5" y2="297.0" stroke="#2E3A46" stroke-width="2.5" stroke-linecap="square"/><line x1="1517.5" y1="297.0" x2="1517.5" y2="333.0" stroke="#2E3A46" stroke-width="2.5" stroke-linecap="square"/><polygon points="1517.5,343.0 1508.2,328.0 1526.8,328.0" fill="#2E3A46"/><rect x="1188.0" y="570.0" width="170.0" height="68.0" rx="0.0" fill="#FFFFFF" stroke="#2E3A46" stroke-width="2.5"/><line x1="1273.0" y1="570.0" x2="1273.0" y2="638.0" stroke="#2E3A46" stroke-width="2.5" stroke-linecap="square"/><path d="M 1284.5,586.9 v 34.3 a 31.0,8.9 0 0 0 62.0,0 v -34.3 z" fill="#3BAEE4" stroke="#1F7FA6" stroke-width="1.5" stroke-linejoin="round" stroke-linecap="round"/><ellipse cx="1315.5" cy="586.9" rx="31.0" ry="8.9" fill="#6FC7EE" stroke="#1F7FA6" stroke-width="1.5"/><path d="M 1284.5,599.2 a 31.0,8.9 0 0 0 62.0,0" fill="none" stroke="#1F7FA6" stroke-width="1.2" stroke-linejoin="round" stroke-linecap="round"/><path d="M 1284.5,609.5 a 31.0,8.9 0 0 0 62.0,0" fill="none" stroke="#1F7FA6" stroke-width="1.2" stroke-linejoin="round" stroke-linecap="round"/><text x="1230.5" y="611.0" font-family="Helvetica, Arial, sans-serif" font-size="20.0" fill="#1F2933" text-anchor="middle" font-weight="normal">Mod</text><line x1="1315.5" y1="640.0" x2="1315.5" y2="669.0" stroke="#2E3A46" stroke-width="2.5" stroke-linecap="square"/><polygon points="1315.5,679.0 1306.2,664.0 1324.8,664.0" fill="#2E3A46"/><path d="M 1297.5,683.0 L 1322.7,683.0 L 1333.5,693.8 L 1333.5,723.0 L 1297.5,723.0 Z" fill="none" stroke="#2E3A46" stroke-width="4.0" stroke-linejoin="round" stroke-linecap="round"/><line x1="1230.5" y1="640.0" x2="1230.5" y2="669.0" stroke="#2E3A46" stroke-width="2.5" stroke-linecap="square"/><polygon points="1230.5,679.0 1221.2,664.0 1239.8,664.0" fill="#2E3A46"/><path d="M 1237.7,683.0 L 1212.5,683.0 L 1212.5,723.0 L 1236.3,723.0" fill="none" stroke="#2E3A46" stroke-width="4.0" stroke-linejoin="round" stroke-linecap="round"/><path d="M 1237.7,683.0 L 1248.5,693.8 L 1248.5,710.8" fill="none" stroke="#2E3A46" stroke-width="4.0" stroke-linejoin="round" stroke-linecap="round"/><line x1="1241.2" y1="709.5" x2="1241.2" y2="729.1" stroke="#2E3A46" stroke-width="4.0" stroke-linecap="square"/><line x1="1231.4" y1="719.3" x2="1250.9" y2="719.3" stroke="#2E3A46" stroke-width="4.0" stroke-linecap="square"/><rect x="1390.0" y="570.0" width="170.0" height="68.0" rx="0.0" fill="#FFFFFF" stroke="#2E3A46" stroke-width="2.5"/><line x1="1475.0" y1="570.0" x2="1475.0" y2="638.0" stroke="#2E3A46" stroke-width="2.5" stroke-linecap="square"/><path d="M 1486.5,586.9 v 34.3 a 31.0,8.9 0 0 0 62.0,0 v -34.3 z" fill="#3BAEE4" stroke="#1F7FA6" stroke-width="1.5" stroke-linejoin="round" stroke-linecap="round"/><ellipse cx="1517.5" cy="586.9" rx="31.0" ry="8.9" fill="#6FC7EE" stroke="#1F7FA6" stroke-width="1.5"/><path d="M 1486.5,599.2 a 31.0,8.9 0 0 0 62.0,0" fill="none" stroke="#1F7FA6" stroke-width="1.2" stroke-linejoin="round" stroke-linecap="round"/><path d="M 1486.5,609.5 a 31.0,8.9 0 0 0 62.0,0" fill="none" stroke="#1F7FA6" stroke-width="1.2" stroke-linejoin="round" stroke-linecap="round"/><text x="1432.5" y="611.0" font-family="Helvetica, Arial, sans-serif" font-size="20.0" fill="#1F2933" text-anchor="middle" font-weight="normal">Mod</text><line x1="1517.5" y1="640.0" x2="1517.5" y2="669.0" stroke="#2E3A46" stroke-width="2.5" stroke-linecap="square"/><polygon points="1517.5,679.0 1508.2,664.0 1526.8,664.0" fill="#2E3A46"/><path d="M 1499.5,683.0 L 1524.7,683.0 L 1535.5,693.8 L 1535.5,723.0 L 1499.5,723.0 Z" fill="none" stroke="#2E3A46" stroke-width="4.0" stroke-linejoin="round" stroke-linecap="round"/><line x1="1432.5" y1="640.0" x2="1432.5" y2="669.0" stroke="#2E3A46" stroke-width="2.5" stroke-linecap="square"/><polygon points="1432.5,679.0 1423.2,664.0 1441.8,664.0" fill="#2E3A46"/><path d="M 1439.7,683.0 L 1414.5,683.0 L 1414.5,723.0 L 1438.3,723.0" fill="none" stroke="#2E3A46" stroke-width="4.0" stroke-linejoin="round" stroke-linecap="round"/><path d="M 1439.7,683.0 L 1450.5,693.8 L 1450.5,710.8" fill="none" stroke="#2E3A46" stroke-width="4.0" stroke-linejoin="round" stroke-linecap="round"/><line x1="1443.2" y1="709.5" x2="1443.2" y2="729.1" stroke="#2E3A46" stroke-width="4.0" stroke-linecap="square"/><line x1="1433.4" y1="719.3" x2="1452.9" y2="719.3" stroke="#2E3A46" stroke-width="4.0" stroke-linecap="square"/><line x1="1315.5" y1="570.0" x2="1315.5" y2="522.0" stroke="#2E3A46" stroke-width="2.5" stroke-linecap="square"/><line x1="1315.5" y1="522.0" x2="1517.5" y2="522.0" stroke="#2E3A46" stroke-width="2.5" stroke-linecap="square"/><line x1="1517.5" y1="522.0" x2="1517.5" y2="558.0" stroke="#2E3A46" stroke-width="2.5" stroke-linecap="square"/><polygon points="1517.5,568.0 1508.2,553.0 1526.8,553.0" fill="#2E3A46"/><rect x="1188.0" y="900.0" width="170.0" height="68.0" rx="0.0" fill="#FFFFFF" stroke="#2E3A46" stroke-width="2.5"/><line x1="1273.0" y1="900.0" x2="1273.0" y2="968.0" stroke="#2E3A46" stroke-width="2.5" stroke-linecap="square"/><path d="M 1284.5,916.9 v 34.3 a 31.0,8.9 0 0 0 62.0,0 v -34.3 z" fill="#3BAEE4" stroke="#1F7FA6" stroke-width="1.5" stroke-linejoin="round" stroke-linecap="round"/><ellipse cx="1315.5" cy="916.9" rx="31.0" ry="8.9" fill="#6FC7EE" stroke="#1F7FA6" stroke-width="1.5"/><path d="M 1284.5,929.2 a 31.0,8.9 0 0 0 62.0,0" fill="none" stroke="#1F7FA6" stroke-width="1.2" stroke-linejoin="round" stroke-linecap="round"/><path d="M 1284.5,939.5 a 31.0,8.9 0 0 0 62.0,0" fill="none" stroke="#1F7FA6" stroke-width="1.2" stroke-linejoin="round" stroke-linecap="round"/><text x="1230.5" y="941.0" font-family="Helvetica, Arial, sans-serif" font-size="20.0" fill="#1F2933" text-anchor="middle" font-weight="normal">Mod</text><line x1="1315.5" y1="970.0" x2="1315.5" y2="999.0" stroke="#2E3A46" stroke-width="2.5" stroke-linecap="square"/><polygon points="1315.5,1009.0 1306.2,994.0 1324.8,994.0" fill="#2E3A46"/><path d="M 1297.5,1013.0 L 1322.7,1013.0 L 1333.5,1023.8 L 1333.5,1053.0 L 1297.5,1053.0 Z" fill="none" stroke="#2E3A46" stroke-width="4.0" stroke-linejoin="round" stroke-linecap="round"/><line x1="1230.5" y1="970.0" x2="1230.5" y2="999.0" stroke="#2E3A46" stroke-width="2.5" stroke-linecap="square"/><polygon points="1230.5,1009.0 1221.2,994.0 1239.8,994.0" fill="#2E3A46"/><path d="M 1237.7,1013.0 L 1212.5,1013.0 L 1212.5,1053.0 L 1236.3,1053.0" fill="none" stroke="#2E3A46" stroke-width="4.0" stroke-linejoin="round" stroke-linecap="round"/><path d="M 1237.7,1013.0 L 1248.5,1023.8 L 1248.5,1040.8" fill="none" stroke="#2E3A46" stroke-width="4.0" stroke-linejoin="round" stroke-linecap="round"/><line x1="1241.2" y1="1039.5" x2="1241.2" y2="1059.1" stroke="#2E3A46" stroke-width="4.0" stroke-linecap="square"/><line x1="1231.4" y1="1049.3" x2="1250.9" y2="1049.3" stroke="#2E3A46" stroke-width="4.0" stroke-linecap="square"/><rect x="1390.0" y="900.0" width="170.0" height="68.0" rx="0.0" fill="#FFFFFF" stroke="#2E3A46" stroke-width="2.5"/><line x1="1475.0" y1="900.0" x2="1475.0" y2="968.0" stroke="#2E3A46" stroke-width="2.5" stroke-linecap="square"/><path d="M 1486.5,916.9 v 34.3 a 31.0,8.9 0 0 0 62.0,0 v -34.3 z" fill="#3BAEE4" stroke="#1F7FA6" stroke-width="1.5" stroke-linejoin="round" stroke-linecap="round"/><ellipse cx="1517.5" cy="916.9" rx="31.0" ry="8.9" fill="#6FC7EE" stroke="#1F7FA6" stroke-width="1.5"/><path d="M 1486.5,929.2 a 31.0,8.9 0 0 0 62.0,0" fill="none" stroke="#1F7FA6" stroke-width="1.2" stroke-linejoin="round" stroke-linecap="round"/><path d="M 1486.5,939.5 a 31.0,8.9 0 0 0 62.0,0" fill="none" stroke="#1F7FA6" stroke-width="1.2" stroke-linejoin="round" stroke-linecap="round"/><text x="1432.5" y="941.0" font-family="Helvetica, Arial, sans-serif" font-size="20.0" fill="#1F2933" text-anchor="middle" font-weight="normal">Mod</text><line x1="1517.5" y1="970.0" x2="1517.5" y2="999.0" stroke="#2E3A46" stroke-width="2.5" stroke-linecap="square"/><polygon points="1517.5,1009.0 1508.2,994.0 1526.8,994.0" fill="#2E3A46"/><path d="M 1499.5,1013.0 L 1524.7,1013.0 L 1535.5,1023.8 L 1535.5,1053.0 L 1499.5,1053.0 Z" fill="none" stroke="#2E3A46" stroke-width="4.0" stroke-linejoin="round" stroke-linecap="round"/><line x1="1432.5" y1="970.0" x2="1432.5" y2="999.0" stroke="#2E3A46" stroke-width="2.5" stroke-linecap="square"/><polygon points="1432.5,1009.0 1423.2,994.0 1441.8,994.0" fill="#2E3A46"/><path d="M 1439.7,1013.0 L 1414.5,1013.0 L 1414.5,1053.0 L 1438.3,1053.0" fill="none" stroke="#2E3A46" stroke-width="4.0" stroke-linejoin="round" stroke-linecap="round"/><path d="M 1439.7,1013.0 L 1450.5,1023.8 L 1450.5,1040.8" fill="none" stroke="#2E3A46" stroke-width="4.0" stroke-linejoin="round" stroke-linecap="round"/><line x1="1443.2" y1="1039.5" x2="1443.2" y2="1059.1" stroke="#2E3A46" stroke-width="4.0" stroke-linecap="square"/><line x1="1433.4" y1="1049.3" x2="1452.9" y2="1049.3" stroke="#2E3A46" stroke-width="4.0" stroke-linecap="square"/><line x1="1315.5" y1="900.0" x2="1315.5" y2="852.0" stroke="#2E3A46" stroke-width="2.5" stroke-linecap="square"/><line x1="1315.5" y1="852.0" x2="1517.5" y2="852.0" stroke="#2E3A46" stroke-width="2.5" stroke-linecap="square"/><line x1="1517.5" y1="852.0" x2="1517.5" y2="888.0" stroke="#2E3A46" stroke-width="2.5" stroke-linecap="square"/><polygon points="1517.5,898.0 1508.2,883.0 1526.8,883.0" fill="#2E3A46"/><rect x="1188.0" y="1125.0" width="170.0" height="68.0" rx="0.0" fill="#FFFFFF" stroke="#2E3A46" stroke-width="2.5"/><line x1="1273.0" y1="1125.0" x2="1273.0" y2="1193.0" stroke="#2E3A46" stroke-width="2.5" stroke-linecap="square"/><path d="M 1284.5,1141.9 v 34.3 a 31.0,8.9 0 0 0 62.0,0 v -34.3 z" fill="#3BAEE4" stroke="#1F7FA6" stroke-width="1.5" stroke-linejoin="round" stroke-linecap="round"/><ellipse cx="1315.5" cy="1141.9" rx="31.0" ry="8.9" fill="#6FC7EE" stroke="#1F7FA6" stroke-width="1.5"/><path d="M 1284.5,1154.2 a 31.0,8.9 0 0 0 62.0,0" fill="none" stroke="#1F7FA6" stroke-width="1.2" stroke-linejoin="round" stroke-linecap="round"/><path d="M 1284.5,1164.5 a 31.0,8.9 0 0 0 62.0,0" fill="none" stroke="#1F7FA6" stroke-width="1.2" stroke-linejoin="round" stroke-linecap="round"/><text x="1230.5" y="1166.0" font-family="Helvetica, Arial, sans-serif" font-size="20.0" fill="#1F2933" text-anchor="middle" font-weight="normal">Mod</text><line x1="1315.5" y1="1195.0" x2="1315.5" y2="1224.0" stroke="#2E3A46" stroke-width="2.5" stroke-linecap="square"/><polygon points="1315.5,1234.0 1306.2,1219.0 1324.8,1219.0" fill="#2E3A46"/><path d="M 1297.5,1238.0 L 1322.7,1238.0 L 1333.5,1248.8 L 1333.5,1278.0 L 1297.5,1278.0 Z" fill="none" stroke="#2E3A46" stroke-width="4.0" stroke-linejoin="round" stroke-linecap="round"/><line x1="1230.5" y1="1195.0" x2="1230.5" y2="1224.0" stroke="#2E3A46" stroke-width="2.5" stroke-linecap="square"/><polygon points="1230.5,1234.0 1221.2,1219.0 1239.8,1219.0" fill="#2E3A46"/><path d="M 1237.7,1238.0 L 1212.5,1238.0 L 1212.5,1278.0 L 1236.3,1278.0" fill="none" stroke="#2E3A46" stroke-width="4.0" stroke-linejoin="round" stroke-linecap="round"/><path d="M 1237.7,1238.0 L 1248.5,1248.8 L 1248.5,1265.8" fill="none" stroke="#2E3A46" stroke-width="4.0" stroke-linejoin="round" stroke-linecap="round"/><line x1="1241.2" y1="1264.5" x2="1241.2" y2="1284.1" stroke="#2E3A46" stroke-width="4.0" stroke-linecap="square"/><line x1="1231.4" y1="1274.3" x2="1250.9" y2="1274.3" stroke="#2E3A46" stroke-width="4.0" stroke-linecap="square"/><rect x="1390.0" y="1125.0" width="170.0" height="68.0" rx="0.0" fill="#FFFFFF" stroke="#2E3A46" stroke-width="2.5"/><line x1="1475.0" y1="1125.0" x2="1475.0" y2="1193.0" stroke="#2E3A46" stroke-width="2.5" stroke-linecap="square"/><path d="M 1486.5,1141.9 v 34.3 a 31.0,8.9 0 0 0 62.0,0 v -34.3 z" fill="#3BAEE4" stroke="#1F7FA6" stroke-width="1.5" stroke-linejoin="round" stroke-linecap="round"/><ellipse cx="1517.5" cy="1141.9" rx="31.0" ry="8.9" fill="#6FC7EE" stroke="#1F7FA6" stroke-width="1.5"/><path d="M 1486.5,1154.2 a 31.0,8.9 0 0 0 62.0,0" fill="none" stroke="#1F7FA6" stroke-width="1.2" stroke-linejoin="round" stroke-linecap="round"/><path d="M 1486.5,1164.5 a 31.0,8.9 0 0 0 62.0,0" fill="none" stroke="#1F7FA6" stroke-width="1.2" stroke-linejoin="round" stroke-linecap="round"/><text x="1432.5" y="1166.0" font-family="Helvetica, Arial, sans-serif" font-size="20.0" fill="#1F2933" text-anchor="middle" font-weight="normal">Mod</text><line x1="1517.5" y1="1195.0" x2="1517.5" y2="1224.0" stroke="#2E3A46" stroke-width="2.5" stroke-linecap="square"/><polygon points="1517.5,1234.0 1508.2,1219.0 1526.8,1219.0" fill="#2E3A46"/><path d="M 1499.5,1238.0 L 1524.7,1238.0 L 1535.5,1248.8 L 1535.5,1278.0 L 1499.5,1278.0 Z" fill="none" stroke="#2E3A46" stroke-width="4.0" stroke-linejoin="round" stroke-linecap="round"/><line x1="1432.5" y1="1195.0" x2="1432.5" y2="1224.0" stroke="#2E3A46" stroke-width="2.5" stroke-linecap="square"/><polygon points="1432.5,1234.0 1423.2,1219.0 1441.8,1219.0" fill="#2E3A46"/><path d="M 1439.7,1238.0 L 1414.5,1238.0 L 1414.5,1278.0 L 1438.3,1278.0" fill="none" stroke="#2E3A46" stroke-width="4.0" stroke-linejoin="round" stroke-linecap="round"/><path d="M 1439.7,1238.0 L 1450.5,1248.8 L 1450.5,1265.8" fill="none" stroke="#2E3A46" stroke-width="4.0" stroke-linejoin="round" stroke-linecap="round"/><line x1="1443.2" y1="1264.5" x2="1443.2" y2="1284.1" stroke="#2E3A46" stroke-width="4.0" stroke-linecap="square"/><line x1="1433.4" y1="1274.3" x2="1452.9" y2="1274.3" stroke="#2E3A46" stroke-width="4.0" stroke-linecap="square"/><line x1="1315.5" y1="1125.0" x2="1315.5" y2="1077.0" stroke="#2E3A46" stroke-width="2.5" stroke-linecap="square"/><line x1="1315.5" y1="1077.0" x2="1517.5" y2="1077.0" stroke="#2E3A46" stroke-width="2.5" stroke-linecap="square"/><line x1="1517.5" y1="1077.0" x2="1517.5" y2="1113.0" stroke="#2E3A46" stroke-width="2.5" stroke-linecap="square"/><polygon points="1517.5,1123.0 1508.2,1108.0 1526.8,1108.0" fill="#2E3A46"/><rect x="1188.0" y="1350.0" width="170.0" height="68.0" rx="0.0" fill="#FFFFFF" stroke="#2E3A46" stroke-width="2.5"/><line x1="1273.0" y1="1350.0" x2="1273.0" y2="1418.0" stroke="#2E3A46" stroke-width="2.5" stroke-linecap="square"/><path d="M 1284.5,1366.9 v 34.3 a 31.0,8.9 0 0 0 62.0,0 v -34.3 z" fill="#3BAEE4" stroke="#1F7FA6" stroke-width="1.5" stroke-linejoin="round" stroke-linecap="round"/><ellipse cx="1315.5" cy="1366.9" rx="31.0" ry="8.9" fill="#6FC7EE" stroke="#1F7FA6" stroke-width="1.5"/><path d="M 1284.5,1379.2 a 31.0,8.9 0 0 0 62.0,0" fill="none" stroke="#1F7FA6" stroke-width="1.2" stroke-linejoin="round" stroke-linecap="round"/><path d="M 1284.5,1389.5 a 31.0,8.9 0 0 0 62.0,0" fill="none" stroke="#1F7FA6" stroke-width="1.2" stroke-linejoin="round" stroke-linecap="round"/><text x="1230.5" y="1391.0" font-family="Helvetica, Arial, sans-serif" font-size="20.0" fill="#1F2933" text-anchor="middle" font-weight="normal">Mod</text><line x1="1315.5" y1="1420.0" x2="1315.5" y2="1449.0" stroke="#2E3A46" stroke-width="2.5" stroke-linecap="square"/><polygon points="1315.5,1459.0 1306.2,1444.0 1324.8,1444.0" fill="#2E3A46"/><path d="M 1297.5,1463.0 L 1322.7,1463.0 L 1333.5,1473.8 L 1333.5,1503.0 L 1297.5,1503.0 Z" fill="none" stroke="#2E3A46" stroke-width="4.0" stroke-linejoin="round" stroke-linecap="round"/><line x1="1230.5" y1="1420.0" x2="1230.5" y2="1449.0" stroke="#2E3A46" stroke-width="2.5" stroke-linecap="square"/><polygon points="1230.5,1459.0 1221.2,1444.0 1239.8,1444.0" fill="#2E3A46"/><path d="M 1237.7,1463.0 L 1212.5,1463.0 L 1212.5,1503.0 L 1236.3,1503.0" fill="none" stroke="#2E3A46" stroke-width="4.0" stroke-linejoin="round" stroke-linecap="round"/><path d="M 1237.7,1463.0 L 1248.5,1473.8 L 1248.5,1490.8" fill="none" stroke="#2E3A46" stroke-width="4.0" stroke-linejoin="round" stroke-linecap="round"/><line x1="1241.2" y1="1489.5" x2="1241.2" y2="1509.1" stroke="#2E3A46" stroke-width="4.0" stroke-linecap="square"/><line x1="1231.4" y1="1499.3" x2="1250.9" y2="1499.3" stroke="#2E3A46" stroke-width="4.0" stroke-linecap="square"/><rect x="1390.0" y="1350.0" width="170.0" height="68.0" rx="0.0" fill="#FFFFFF" stroke="#2E3A46" stroke-width="2.5"/><line x1="1475.0" y1="1350.0" x2="1475.0" y2="1418.0" stroke="#2E3A46" stroke-width="2.5" stroke-linecap="square"/><path d="M 1486.5,1366.9 v 34.3 a 31.0,8.9 0 0 0 62.0,0 v -34.3 z" fill="#3BAEE4" stroke="#1F7FA6" stroke-width="1.5" stroke-linejoin="round" stroke-linecap="round"/><ellipse cx="1517.5" cy="1366.9" rx="31.0" ry="8.9" fill="#6FC7EE" stroke="#1F7FA6" stroke-width="1.5"/><path d="M 1486.5,1379.2 a 31.0,8.9 0 0 0 62.0,0" fill="none" stroke="#1F7FA6" stroke-width="1.2" stroke-linejoin="round" stroke-linecap="round"/><path d="M 1486.5,1389.5 a 31.0,8.9 0 0 0 62.0,0" fill="none" stroke="#1F7FA6" stroke-width="1.2" stroke-linejoin="round" stroke-linecap="round"/><text x="1432.5" y="1391.0" font-family="Helvetica, Arial, sans-serif" font-size="20.0" fill="#1F2933" text-anchor="middle" font-weight="normal">Mod</text><line x1="1517.5" y1="1420.0" x2="1517.5" y2="1449.0" stroke="#2E3A46" stroke-width="2.5" stroke-linecap="square"/><polygon points="1517.5,1459.0 1508.2,1444.0 1526.8,1444.0" fill="#2E3A46"/><path d="M 1499.5,1463.0 L 1524.7,1463.0 L 1535.5,1473.8 L 1535.5,1503.0 L 1499.5,1503.0 Z" fill="none" stroke="#2E3A46" stroke-width="4.0" stroke-linejoin="round" stroke-linecap="round"/><line x1="1432.5" y1="1420.0" x2="1432.5" y2="1449.0" stroke="#2E3A46" stroke-width="2.5" stroke-linecap="square"/><polygon points="1432.5,1459.0 1423.2,1444.0 1441.8,1444.0" fill="#2E3A46"/><path d="M 1439.7,1463.0 L 1414.5,1463.0 L 1414.5,1503.0 L 1438.3,1503.0" fill="none" stroke="#2E3A46" stroke-width="4.0" stroke-linejoin="round" stroke-linecap="round"/><path d="M 1439.7,1463.0 L 1450.5,1473.8 L 1450.5,1490.8" fill="none" stroke="#2E3A46" stroke-width="4.0" stroke-linejoin="round" stroke-linecap="round"/><line x1="1443.2" y1="1489.5" x2="1443.2" y2="1509.1" stroke="#2E3A46" stroke-width="4.0" stroke-linecap="square"/><line x1="1433.4" y1="1499.3" x2="1452.9" y2="1499.3" stroke="#2E3A46" stroke-width="4.0" stroke-linecap="square"/><line x1="1315.5" y1="1350.0" x2="1315.5" y2="1302.0" stroke="#2E3A46" stroke-width="2.5" stroke-linecap="square"/><line x1="1315.5" y1="1302.0" x2="1517.5" y2="1302.0" stroke="#2E3A46" stroke-width="2.5" stroke-linecap="square"/><line x1="1517.5" y1="1302.0" x2="1517.5" y2="1338.0" stroke="#2E3A46" stroke-width="2.5" stroke-linecap="square"/><polygon points="1517.5,1348.0 1508.2,1333.0 1526.8,1333.0" fill="#2E3A46"/><path d="M 644.0,708.0 C 624.8,708.0 612.0,579.0 516.0,579.0" fill="none" stroke="#2E3A46" stroke-width="2.5" stroke-linejoin="round" stroke-linecap="round"/><polygon points="504.0,579.0 519.0,569.7 519.0,588.3" fill="#2E3A46"/><path d="M 644.0,719.0 C 624.8,719.0 612.0,804.0 516.0,804.0" fill="none" stroke="#2E3A46" stroke-width="2.5" stroke-linejoin="round" stroke-linecap="round"/><polygon points="504.0,804.0 519.0,794.7 519.0,813.3" fill="#2E3A46"/><path d="M 644.0,730.0 C 624.8,730.0 612.0,1029.0 516.0,1029.0" fill="none" stroke="#2E3A46" stroke-width="2.5" stroke-linejoin="round" stroke-linecap="round"/><polygon points="504.0,1029.0 519.0,1019.7 519.0,1038.3" fill="#2E3A46"/><path d="M 673.4,696.0 C 673.4,546.0 898.7,154.0 1174.0,154.0" fill="none" stroke="#2E3A46" stroke-width="2.5" stroke-linejoin="round" stroke-linecap="round"/><polygon points="673.4,696.0 664.1,681.0 682.7,681.0" fill="#2E3A46"/><polygon points="1186.0,154.0 1171.0,144.7 1171.0,163.3" fill="#2E3A46"/><path d="M 696.5,696.0 C 696.5,546.0 911.4,379.0 1174.0,379.0" fill="none" stroke="#2E3A46" stroke-width="2.5" stroke-linejoin="round" stroke-linecap="round"/><polygon points="696.5,696.0 687.2,681.0 705.8,681.0" fill="#2E3A46"/><polygon points="1186.0,379.0 1171.0,369.7 1171.0,388.3" fill="#2E3A46"/><path d="M 719.6,696.0 C 719.6,546.0 924.1,604.0 1174.0,604.0" fill="none" stroke="#2E3A46" stroke-width="2.5" stroke-linejoin="round" stroke-linecap="round"/><polygon points="719.6,696.0 710.3,681.0 728.9,681.0" fill="#2E3A46"/><polygon points="1186.0,604.0 1171.0,594.7 1171.0,613.3" fill="#2E3A46"/><path d="M 673.4,742.0 C 673.4,892.0 898.7,934.0 1174.0,934.0" fill="none" stroke="#2E3A46" stroke-width="2.5" stroke-linejoin="round" stroke-linecap="round"/><polygon points="673.4,742.0 664.1,757.0 682.7,757.0" fill="#2E3A46"/><polygon points="1186.0,934.0 1171.0,924.7 1171.0,943.3" fill="#2E3A46"/><path d="M 696.5,742.0 C 696.5,892.0 911.4,1159.0 1174.0,1159.0" fill="none" stroke="#2E3A46" stroke-width="2.5" stroke-linejoin="round" stroke-linecap="round"/><polygon points="696.5,742.0 687.2,757.0 705.8,757.0" fill="#2E3A46"/><polygon points="1186.0,1159.0 1171.0,1149.7 1171.0,1168.3" fill="#2E3A46"/><path d="M 719.6,742.0 C 719.6,892.0 924.1,1384.0 1174.0,1384.0" fill="none" stroke="#2E3A46" stroke-width="2.5" stroke-linejoin="round" stroke-linecap="round"/><polygon points="719.6,742.0 710.3,757.0 728.9,757.0" fill="#2E3A46"/><polygon points="1186.0,1384.0 1171.0,1374.7 1171.0,1393.3" fill="#2E3A46"/><rect x="964.0" y="672.0" width="105.0" height="46.0" rx="0.0" fill="#FFFFFF" stroke="#2E3A46" stroke-width="2.5"/><text x="1016.5" y="702.0" font-family="Helvetica, Arial, sans-serif" font-size="20.0" fill="#1F2933" text-anchor="middle" font-weight="normal">Proxy</text><path d="M 1069.0,684.0 C 1100.5,684.0 1111.0,154.0 1174.0,154.0" fill="none" stroke="#2E3A46" stroke-width="2.5" stroke-linejoin="round" stroke-linecap="round"/><polygon points="1186.0,154.0 1171.0,144.7 1171.0,163.3" fill="#2E3A46"/><path d="M 1069.0,695.0 C 1100.5,695.0 1111.0,379.0 1174.0,379.0" fill="none" stroke="#2E3A46" stroke-width="2.5" stroke-linejoin="round" stroke-linecap="round"/><polygon points="1186.0,379.0 1171.0,369.7 1171.0,388.3" fill="#2E3A46"/><path d="M 1069.0,706.0 C 1100.5,706.0 1111.0,604.0 1174.0,604.0" fill="none" stroke="#2E3A46" stroke-width="2.5" stroke-linejoin="round" stroke-linecap="round"/><polygon points="1186.0,604.0 1171.0,594.7 1171.0,613.3" fill="#2E3A46"/><rect x="964.0" y="815.0" width="105.0" height="46.0" rx="0.0" fill="#FFFFFF" stroke="#2E3A46" stroke-width="2.5"/><text x="1016.5" y="845.0" font-family="Helvetica, Arial, sans-serif" font-size="20.0" fill="#1F2933" text-anchor="middle" font-weight="normal">Proxy</text><path d="M 1069.0,827.0 C 1100.5,827.0 1111.0,934.0 1174.0,934.0" fill="none" stroke="#2E3A46" stroke-width="2.5" stroke-linejoin="round" stroke-linecap="round"/><polygon points="1186.0,934.0 1171.0,924.7 1171.0,943.3" fill="#2E3A46"/><path d="M 1069.0,838.0 C 1100.5,838.0 1111.0,1159.0 1174.0,1159.0" fill="none" stroke="#2E3A46" stroke-width="2.5" stroke-linejoin="round" stroke-linecap="round"/><polygon points="1186.0,1159.0 1171.0,1149.7 1171.0,1168.3" fill="#2E3A46"/><path d="M 1069.0,849.0 C 1100.5,849.0 1111.0,1384.0 1174.0,1384.0" fill="none" stroke="#2E3A46" stroke-width="2.5" stroke-linejoin="round" stroke-linecap="round"/><polygon points="1186.0,1384.0 1171.0,1374.7 1171.0,1393.3" fill="#2E3A46"/><rect x="644.0" y="696.0" width="105.0" height="46.0" rx="0.0" fill="#FFFFFF" stroke="#2E3A46" stroke-width="2.5"/><text x="696.5" y="726.0" font-family="Helvetica, Arial, sans-serif" font-size="20.0" fill="#1F2933" text-anchor="middle" font-weight="normal">Proxy</text>
</svg>
